OSP_DIN.sfdir

StartChar: parenright
Encoding: 41 41 7
Width: 448
GlyphClass: 2
Flags: W
LayerCount: 2
Fore
SplineSet
205 1434 m 1,0,1
 207 1430 l 2,2,3
 227 1391 227 1391 249.5 1339.5 c 128,-1,4
 272 1288 272 1288 314 1174.5 c 128,-1,5
 356 1061 356 1061 383 912.5 c 128,-1,6
 410 764 410 764 410 614 c 0,7,8
 410 205 410 205 205 -205 c 1,9,-1
 102 -205 l 1,10,11
 109 -180 109 -180 131.5 -63.5 c 128,-1,12
 154 53 154 53 179.5 257.5 c 128,-1,13
 205 462 205 462 205 614 c 0,14,15
 205 713 205 713 194.5 830.5 c 128,-1,16
 184 948 184 948 169 1049.5 c 128,-1,17
 154 1151 154 1151 138.5 1236 c 128,-1,18
 123 1321 123 1321 112.5 1375.5 c 128,-1,19
 102 1430 102 1430 102 1434 c 1,20,-1
 205 1434 l 1,0,1
EndSplineSet
Validated: 1
EndChar

StartChar: slash
Encoding: 47 47 119
Width: 487
VWidth: 0
Flags: W
LayerCount: 2
Fore
SplineSet
263 1459 m 1,0,-1
 467 1459 l 1,1,-1
 224 -26 l 1,2,-1
 20 -26 l 1,3,-1
 263 1459 l 1,0,-1
EndSplineSet
Validated: 1
EndChar

StartChar: greater
Encoding: 62 62 128
Width: 901
VWidth: 0
Flags: W
LayerCount: 2
Fore
SplineSet
450 956 m 5,0,-1
 450 739 l 5,1,-1
 664 527 l 5,2,-1
 450 314 l 5,3,-1
 450 98 l 5,4,-1
 881 527 l 5,5,-1
 450 956 l 5,0,-1
EndSplineSet
Validated: 9
EndChar

StartChar: F
Encoding: 70 70 29
Width: 749
GlyphClass: 2
Flags: W
LayerCount: 2
Fore
SplineSet
98 1434 m 1,0,-1
 98 0 l 1,1,-1
 303 0 l 1,2,-1
 303 614 l 1,3,-1
 610 614 l 1,4,-1
 610 819 l 1,5,-1
 303 819 l 1,6,-1
 303 1229 l 1,7,-1
 713 1229 l 1,8,-1
 713 1434 l 1,9,-1
 98 1434 l 1,0,-1
EndSplineSet
Validated: 9
EndChar

StartChar: T
Encoding: 84 84 43
Width: 602
GlyphClass: 2
Flags: W
LayerCount: 2
Fore
SplineSet
-6 1434 m 1,0,-1
 608 1434 l 1,1,-1
 608 1229 l 1,2,-1
 403 1229 l 1,3,-1
 403 0 l 1,4,-1
 199 0 l 1,5,-1
 199 1229 l 1,6,-1
 -6 1229 l 1,7,-1
 -6 1434 l 1,0,-1
EndSplineSet
Validated: 1
EndChar

StartChar: Y
Encoding: 89 89 48
Width: 737
GlyphClass: 2
Flags: W
LayerCount: 2
Fore
SplineSet
262 408 m 1,0,-1
 262 -2 l 1,1,-1
 469 -2 l 1,2,-1
 469 408 l 1,3,-1
 725 1434 l 1,4,-1
 518 1434 l 1,5,-1
 367 821 l 1,6,-1
 213 1434 l 1,7,-1
 6 1434 l 1,8,-1
 262 408 l 1,0,-1
EndSplineSet
Validated: 9
EndChar

StartChar: backslash
Encoding: 92 92 122
Width: 487
VWidth: 0
Flags: W
LayerCount: 2
Fore
SplineSet
224 1459 m 1,0,-1
 20 1459 l 1,1,-1
 271 -65 l 1,2,-1
 475 -65 l 1,3,-1
 224 1459 l 1,0,-1
EndSplineSet
Validated: 9
EndChar

StartChar: bracketright
Encoding: 93 93 126
Width: 544
VWidth: 0
Flags: W
LayerCount: 2
Fore
SplineSet
16 1328 m 1,0,-1
 220 1328 l 1,1,-1
 220 -102 l 1,2,-1
 16 -102 l 1,3,-1
 16 -204 l 1,4,-1
 426 -204 l 1,5,-1
 426 -102 l 1,6,-1
 426 1328 l 1,7,-1
 426 1430 l 1,8,-1
 16 1430 l 1,9,-1
 16 1328 l 1,0,-1
EndSplineSet
Validated: 9
EndChar

StartChar: asciicircum
Encoding: 94 94 138
Width: 733
Flags: W
LayerCount: 2
Fore
SplineSet
254 1483 m 5,0,-1
 459 1483 l 5,1,-1
 662 1229 l 5,2,-1
 485 1229 l 5,3,-1
 356 1384 l 5,4,-1
 227 1229 l 5,5,-1
 51 1229 l 5,6,-1
 254 1483 l 5,0,-1
EndSplineSet
Validated: 1
EndChar

StartChar: c
Encoding: 99 99 53
Width: 733
GlyphClass: 2
Flags: W
LayerCount: 2
Fore
SplineSet
389 205 m 132,-1,1
 432 205 432 205 462 234.5 c 132,-1,2
 492 264 492 264 492 307 c 5,3,-1
 696 307 l 5,4,5
 696 180 696 180 606 90 c 132,-1,6
 516 0 516 0 389 0 c 132,-1,7
 262 0 262 0 172 90 c 132,-1,8
 82 180 82 180 82 307 c 6,9,-1
 82 717 l 6,10,11
 82 844 82 844 172 934 c 132,-1,12
 262 1024 262 1024 389 1024 c 132,-1,13
 516 1024 516 1024 606 934 c 132,-1,14
 696 844 696 844 696 717 c 5,15,-1
 492 717 l 5,16,17
 492 760 492 760 462 789.5 c 132,-1,18
 432 819 432 819 389 819 c 132,-1,19
 346 819 346 819 316.5 789.5 c 132,-1,20
 287 760 287 760 287 717 c 6,21,-1
 287 307 l 6,22,23
 287 264 287 264 316.5 234.5 c 132,-1,0
 346 205 346 205 389 205 c 132,-1,1
EndSplineSet
Validated: 1
EndChar

StartChar: i
Encoding: 105 105 59
Width: 376
GlyphClass: 2
Flags: W
LayerCount: 2
Fore
SplineSet
86 1434 m 1,0,-1
 291 1434 l 1,1,-1
 291 1229 l 1,2,-1
 86 1229 l 1,3,-1
 86 1434 l 1,0,-1
86 1024 m 5,4,-1
 291 1024 l 5,5,-1
 291 0 l 5,6,-1
 86 0 l 5,7,-1
 86 1024 l 5,4,-1
EndSplineSet
Validated: 1
EndChar

StartChar: l
Encoding: 108 108 62
Width: 393
GlyphClass: 2
Flags: W
LayerCount: 2
Fore
SplineSet
74 1434 m 1,0,-1
 279 1434 l 1,1,-1
 279 309 l 5,2,-1
 279 305 l 5,3,4
 281 264 281 264 310.5 234.5 c 128,-1,5
 340 205 340 205 383 205 c 1,6,-1
 383 0 l 1,7,8
 256 0 256 0 166 89 c 128,-1,9
 76 178 76 178 74 305 c 5,10,-1
 74 309 l 5,11,-1
 74 1434 l 1,0,-1
EndSplineSet
Validated: 1
EndChar

StartChar: o
Encoding: 111 111 65
Width: 753
GlyphClass: 2
Flags: W
LayerCount: 2
Fore
SplineSet
377 1020 m 4,0,1
 504 1020 504 1020 594 932 c 132,-1,2
 684 844 684 844 686 717 c 5,3,-1
 686 305 l 6,4,5
 686 176 686 176 595 86 c 132,-1,6
 504 -4 504 -4 377 -4 c 260,7,8
 250 -4 250 -4 161 84 c 132,-1,9
 72 172 72 172 68 297 c 5,10,-1
 68 305 l 5,11,-1
 68 711 l 6,12,13
 68 840 68 840 158 930 c 132,-1,14
 248 1020 248 1020 377 1020 c 4,0,1
377 813 m 132,-1,16
 334 813 334 813 304 783.5 c 132,-1,17
 274 754 274 754 274 713 c 6,18,-1
 274 305 l 6,19,20
 274 262 274 262 304 232.5 c 132,-1,21
 334 203 334 203 377 203 c 4,22,23
 418 203 418 203 448.5 231.5 c 132,-1,24
 479 260 479 260 479 301 c 6,25,-1
 479 711 l 6,26,27
 479 754 479 754 449.5 783.5 c 132,-1,15
 420 813 420 813 377 813 c 132,-1,16
EndSplineSet
Validated: 1
EndChar

StartChar: braceleft
Encoding: 123 123 132
Width: 550
VWidth: 0
Flags: W
VStem: 223 208<36 109 408 480 750 823 1117 1190>
LayerCount: 2
Fore
SplineSet
518 -203 m 1,0,-1
 534 -203 l 1,1,-1
 534 5 l 1,2,3
 491 5 491 5 460.5 35.5 c 128,-1,4
 430 66 430 66 430 109 c 2,5,-1
 430 408 l 1,6,-1
 430 1117 l 2,7,8
 430 1160 430 1160 460.5 1190.5 c 128,-1,9
 491 1221 491 1221 534 1221 c 1,10,-1
 534 1429 l 1,11,12
 405 1429 405 1429 314 1337.5 c 128,-1,13
 223 1246 223 1246 223 1117 c 2,14,-1
 223 823 l 2,15,16
 223 780 223 780 192.5 749.5 c 128,-1,17
 162 719 162 719 119 719 c 1,18,-1
 119 511 l 1,19,20
 162 511 162 511 192.5 481 c 128,-1,21
 223 451 223 451 223 408 c 2,22,-1
 223 109 l 2,23,24
 223 -16 223 -16 308.5 -106.5 c 128,-1,25
 394 -197 394 -197 518 -203 c 1,0,-1
EndSplineSet
Validated: 9
EndChar

StartChar: bar
Encoding: 124 124 134
Width: 413
Flags: W
LayerCount: 2
Fore
SplineSet
309 -137 m 1,0,-1
 104 -137 l 1,1,-1
 104 1524 l 1,2,-1
 309 1524 l 1,3,-1
 309 -137 l 1,0,-1
EndSplineSet
Validated: 1
EndChar

StartChar: braceright
Encoding: 125 125 131
Width: 550
VWidth: 0
Flags: W
VStem: 121 312<511 719> 121 208<36 480 750 1190>
LayerCount: 2
Fore
SplineSet
33 -203 m 5,0,-1
 17 -203 l 5,1,-1
 17 5 l 5,2,3
 60 5 60 5 90.5 35.5 c 132,-1,4
 121 66 121 66 121 109 c 6,5,-1
 121 408 l 5,6,-1
 121 1117 l 6,7,8
 121 1160 121 1160 90.5 1190.5 c 132,-1,9
 60 1221 60 1221 17 1221 c 5,10,-1
 17 1429 l 5,11,12
 146 1429 146 1429 237 1337.5 c 132,-1,13
 328 1246 328 1246 328 1117 c 6,14,-1
 328 823 l 6,15,16
 328 780 328 780 358.5 749.5 c 132,-1,17
 389 719 389 719 432 719 c 5,18,-1
 432 511 l 5,19,20
 389 511 389 511 358.5 481 c 132,-1,21
 328 451 328 451 328 408 c 6,22,-1
 328 109 l 6,23,24
 328 -16 328 -16 242.5 -106.5 c 132,-1,25
 157 -197 157 -197 33 -203 c 5,0,-1
EndSplineSet
Validated: 1
EndChar

StartChar: asciitilde
Encoding: 126 126 123
Width: 1013
VWidth: 0
Flags: W
LayerCount: 2
Fore
SplineSet
459 508 m 4,0,1
 571 567 571 567 692 530 c 132,-1,2
 813 493 813 493 872 381 c 5,3,-1
 692 285 l 5,4,5
 672 322 672 322 632 334.5 c 132,-1,6
 592 347 592 347 554 327 c 4,7,8
 442 268 442 268 321 305 c 132,-1,9
 200 342 200 342 141 454 c 5,10,-1
 321 550 l 5,11,12
 341 513 341 513 381.5 500.5 c 132,-1,13
 422 488 422 488 459 508 c 4,0,1
EndSplineSet
Validated: 33
EndChar

StartChar: cedilla
Encoding: 184 184 136
Width: 413
Flags: W
LayerCount: 2
Fore
SplineSet
743 104 m 5,0,-1
 845 104 l 5,1,-1
 743 -203 l 5,2,-1
 538 -203 l 5,3,-1
 743 104 l 5,0,-1
EndSplineSet
Validated: 1
EndChar

StartChar: questiondown
Encoding: 191 191 117
Width: 745
Flags: W
LayerCount: 2
Fore
SplineSet
373 0 m 132,-1,1
 246 0 246 0 156 90 c 132,-1,2
 66 180 66 180 66 307 c 6,3,-1
 66 461 l 6,4,5
 66 541 66 541 109 633 c 4,6,7
 127 672 127 672 179 749.5 c 132,-1,8
 231 827 231 827 246 870 c 4,9,10
 256 905 256 905 262 943 c 132,-1,11
 268 981 268 981 270 1004 c 5,12,-1
 270 1024 l 5,13,-1
 270 1126 l 5,14,-1
 475 1126 l 5,15,-1
 475 973 l 6,16,17
 475 893 475 893 432 801 c 4,18,19
 414 762 414 762 361.5 684 c 132,-1,20
 309 606 309 606 295 563 c 4,21,22
 285 528 285 528 278.5 490.5 c 132,-1,23
 272 453 272 453 270 430 c 5,24,-1
 270 410 l 5,25,-1
 270 307 l 6,26,27
 270 264 270 264 300 234.5 c 132,-1,28
 330 205 330 205 373 205 c 132,-1,29
 416 205 416 205 445.5 234.5 c 132,-1,30
 475 264 475 264 475 307 c 6,31,-1
 475 410 l 5,32,-1
 680 410 l 5,33,-1
 680 307 l 6,34,35
 680 180 680 180 590 90 c 132,-1,0
 500 0 500 0 373 0 c 132,-1,1
475 1229 m 5,36,-1
 270 1229 l 5,37,-1
 270 1434 l 5,38,-1
 475 1434 l 5,39,-1
 475 1229 l 5,36,-1
EndSplineSet
Validated: 1
EndChar

StartChar: Agrave
Encoding: 192 192 77
Width: 825
GlyphClass: 2
Flags: W
HStem: 0 43G<4 215 610 821> 309 201<309 516> 1393 41G<303 523>
LayerCount: 2
Fore
SplineSet
209 1739 m 1,0,-1
 412 1739 l 1,1,-1
 565 1485 l 1,2,-1
 414 1485 l 1,3,-1
 209 1739 l 1,0,-1
311 1434 m 1,4,-1
 514 1434 l 1,5,-1
 821 0 l 1,6,-1
 618 0 l 1,7,-1
 557 307 l 1,8,-1
 268 309 l 1,9,-1
 207 0 l 1,10,-1
 4 0 l 1,11,-1
 311 1434 l 1,4,-1
412 1024 m 2,12,-1
 309 510 l 1,13,-1
 516 510 l 1,14,-1
 414 1024 l 1,15,16
 412 1024 l 2,12,-1
EndSplineSet
Validated: 1
EndChar

StartChar: aacute
Encoding: 225 225 100
Width: 733
GlyphClass: 2
Flags: W
HStem: 1393 41G<424 651>
LayerCount: 2
Fore
SplineSet
449 1434 m 1,0,-1
 651 1434 l 1,1,-1
 449 1180 l 1,2,-1
 297 1180 l 1,3,-1
 449 1434 l 1,0,-1
EndSplineSet
Refer: 51 97 N 1 0 0 1 0 0 2
Validated: 5
EndChar

StartChar: adieresis
Encoding: 228 228 102
Width: 733
GlyphClass: 2
Flags: W
LayerCount: 2
Fore
SplineSet
51 1432 m 5,0,-1
 254 1432 l 5,1,-1
 254 1229 l 5,2,-1
 51 1229 l 5,3,-1
 51 1432 l 5,0,-1
461 1432 m 5,4,-1
 664 1432 l 5,5,-1
 664 1229 l 5,6,-1
 461 1229 l 5,7,-1
 461 1432 l 5,4,-1
EndSplineSet
Refer: 51 97 N 1 0 0 1 0 0 2
Validated: 5
EndChar

StartChar: eacute
Encoding: 233 233 105
Width: 749
GlyphClass: 2
Flags: W
LayerCount: 2
Fore
SplineSet
454 1485 m 1,0,-1
 658 1485 l 1,1,-1
 454 1229 l 1,2,-1
 300 1229 l 1,3,-1
 454 1485 l 1,0,-1
EndSplineSet
Refer: 55 101 S 1 0 0 1 0 0 2
Validated: 1
EndChar

StartChar: ecircumflex
Encoding: 234 234 106
Width: 749
GlyphClass: 2
Flags: W
VStem: 68 614
LayerCount: 2
Fore
SplineSet
272 1487 m 1,0,-1
 477 1487 l 1,1,-1
 682 1231 l 1,2,-1
 502 1231 l 1,3,-1
 375 1384 l 1,4,-1
 248 1231 l 1,5,-1
 68 1231 l 1,6,-1
 272 1487 l 1,0,-1
EndSplineSet
Refer: 55 101 N 1 0 0 1 -1 0 2
Validated: 1
EndChar

StartChar: edieresis
Encoding: 235 235 107
Width: 749
GlyphClass: 2
Flags: W
HStem: 1227 205<68 272 477 682>
VStem: 68 205<1227 1432> 477 205<1227 1432>
LayerCount: 2
Fore
SplineSet
68 1432 m 1,0,-1
 272 1432 l 1,1,-1
 272 1227 l 1,2,-1
 68 1227 l 1,3,-1
 68 1432 l 1,0,-1
477 1432 m 1,4,-1
 682 1432 l 1,5,-1
 682 1227 l 1,6,-1
 477 1227 l 1,7,-1
 477 1432 l 1,4,-1
EndSplineSet
Refer: 55 101 N 1 0 0 1 0 0 2
Validated: 1
EndChar

StartChar: igrave
Encoding: 236 236 108
Width: 591
GlyphClass: 2
Flags: W
HStem: 0 43G<191 396> 983 41G<191 396>
VStem: 191 205<0 1024>
LayerCount: 2
Fore
SplineSet
215 1434 m 1,0,-1
 10 1434 l 1,1,-1
 215 1178 l 1,2,-1
 369 1178 l 1,3,-1
 215 1434 l 1,0,-1
191 1024 m 1,4,-1
 396 1024 l 1,5,-1
 396 0 l 1,6,-1
 191 0 l 1,7,-1
 191 1024 l 1,4,-1
EndSplineSet
Validated: 9
EndChar

StartChar: iacute
Encoding: 237 237 109
Width: 532
GlyphClass: 2
Flags: HWO
LayerCount: 2
Fore
SplineSet
352 1434 m 1,0,-1
 557 1434 l 1,1,-1
 352 1178 l 1,2,-1
 199 1178 l 1,3,-1
 352 1434 l 1,0,-1
195 1024 m 1,4,-1
 400 1024 l 1,5,-1
 400 0 l 1,6,-1
 195 0 l 1,7,-1
 195 1024 l 1,4,-1
EndSplineSet
EndChar

StartChar: idieresis
Encoding: 239 239 111
Width: 727
GlyphClass: 2
Flags: W
LayerCount: 2
Fore
SplineSet
41 1432 m 1,0,-1
 246 1432 l 1,1,-1
 246 1227 l 1,2,-1
 41 1227 l 1,3,-1
 41 1432 l 1,0,-1
451 1432 m 1,4,-1
 655 1432 l 1,5,-1
 655 1227 l 1,6,-1
 451 1227 l 1,7,-1
 451 1432 l 1,4,-1
237 1024 m 5,8,-1
 442 1024 l 5,9,-1
 442 0 l 5,10,-1
 237 0 l 5,11,-1
 237 1024 l 5,8,-1
EndSplineSet
Validated: 1
EndChar

StartChar: ograve
Encoding: 242 242 112
Width: 753
GlyphClass: 2
Flags: W
HStem: 1393 41G<98 326>
LayerCount: 2
Fore
SplineSet
98 1434 m 1,0,-1
 301 1434 l 1,1,-1
 455 1180 l 1,2,-1
 303 1180 l 1,3,-1
 98 1434 l 1,0,-1
EndSplineSet
Refer: 65 111 N 1 0 0 1 0 0 2
Validated: 1
EndChar

StartChar: oacute
Encoding: 243 243 113
Width: 753
GlyphClass: 2
Flags: W
HStem: 1391 41G<428 655>
LayerCount: 2
Fore
SplineSet
453 1432 m 5,0,-1
 655 1432 l 5,1,-1
 453 1178 l 5,2,-1
 301 1178 l 5,3,-1
 453 1432 l 5,0,-1
EndSplineSet
Refer: 65 111 N 1 0 0 1 0 0 2
Validated: 1
EndChar

StartChar: ocircumflex
Encoding: 244 244 114
Width: 753
GlyphClass: 2
Flags: W
LayerCount: 2
Fore
SplineSet
274 1434 m 1,0,-1
 479 1434 l 1,1,-1
 682 1180 l 1,2,-1
 506 1180 l 1,3,-1
 377 1335 l 1,4,-1
 248 1180 l 1,5,-1
 72 1180 l 1,6,-1
 274 1434 l 1,0,-1
EndSplineSet
Refer: 65 111 N 1 0 0 1 0 0 2
Validated: 1
EndChar

StartChar: odieresis
Encoding: 246 246 127
Width: 770
Flags: W
LayerCount: 2
Fore
SplineSet
68 1432 m 1,0,-1
 270 1432 l 1,1,-1
 270 1229 l 1,2,-1
 68 1229 l 1,3,-1
 68 1432 l 1,0,-1
477 1432 m 1,4,-1
 680 1432 l 1,5,-1
 680 1229 l 1,6,-1
 477 1229 l 1,7,-1
 477 1432 l 1,4,-1
EndSplineSet
Refer: 65 111 S 1 0 0 1 16 0 2
Validated: 1
EndChar
